<svg xmlns="http://www.w3.org/2000/svg" style="display: none;">
  <!-- PyLearn Icon Sprite Sheet - Modern Glassmorphism Style -->

  <!-- icon-home: House/home -->
  <symbol id="icon-home" viewBox="0 0 24 24">
    <path d="M3 9L12 3L21 9V20C21 21.1046 20.1046 22 19 22H5C3.89543 22 3 21.1046 3 20V9Z" fill="none" stroke="currentColor" stroke-width="2" stroke-linecap="round" stroke-linejoin="round"/>
    <path d="M9 22V13H15V22" fill="none" stroke="currentColor" stroke-width="2" stroke-linecap="round" stroke-linejoin="round"/>
  </symbol>

  <!-- icon-lessons: Book/open book -->
  <symbol id="icon-lessons" viewBox="0 0 24 24">
    <path d="M4 19C4 19.5304 4.21071 20.0391 4.58579 20.4142C4.96086 20.7893 5.46957 21 6 21H20" fill="none" stroke="currentColor" stroke-width="2" stroke-linecap="round" stroke-linejoin="round"/>
    <path d="M6 3H20C20.5304 3 21.0391 3.21071 21.4142 3.58579C21.7893 3.96086 22 4.46957 22 5V16C22 16.5304 21.7893 17.0391 21.4142 17.4142C21.0391 17.7893 20.5304 18 20 18H6C5.46957 18 4.96086 17.7893 4.58579 17.4142C4.21071 17.0391 4 16.5304 4 16V5C4 4.46957 4.21071 3.96086 4.58579 3.58579C4.96086 3.21071 5.46957 3 6 3Z" fill="none" stroke="currentColor" stroke-width="2" stroke-linecap="round" stroke-linejoin="round"/>
    <path d="M12 7V18" fill="none" stroke="currentColor" stroke-width="2" stroke-linecap="round" stroke-linejoin="round"/>
  </symbol>

  <!-- icon-python: Simplified python snake -->
  <symbol id="icon-python" viewBox="0 0 24 24">
    <path d="M6 3C4.89543 3 4 3.89543 4 5V11C4 12.1046 4.89543 13 6 13H9V19C9 20.1046 9.89543 21 11 21H17C18.1046 21 19 20.1046 19 19V13H20C21.1046 13 22 12.1046 22 11V5C22 3.89543 21.1046 3 20 3H6Z" fill="none" stroke="currentColor" stroke-width="2" stroke-linecap="round" stroke-linejoin="round"/>
    <path d="M9 13C9 12.4696 9.21071 11.9609 9.58579 11.5858C9.96086 11.2107 10.4696 11 11 11H13C13.5304 11 14.0391 11.2107 14.4142 11.5858C14.7893 11.9609 15 12.4696 15 13" fill="none" stroke="currentColor" stroke-width="2" stroke-linecap="round" stroke-linejoin="round"/>
  </symbol>

  <!-- icon-robot: Robot head -->
  <symbol id="icon-robot" viewBox="0 0 24 24">
    <path d="M8 4H16C17.1046 4 18 4.89543 18 6V12C18 13.1046 17.1046 14 16 14H8C6.89543 14 6 13.1046 6 12V6C6 4.89543 6.89543 4 8 4Z" fill="none" stroke="currentColor" stroke-width="2" stroke-linecap="round" stroke-linejoin="round"/>
    <circle cx="10" cy="9" r="1.5" fill="currentColor"/>
    <circle cx="14" cy="9" r="1.5" fill="currentColor"/>
    <path d="M3 16H21" fill="none" stroke="currentColor" stroke-width="2" stroke-linecap="round" stroke-linejoin="round"/>
    <path d="M5 14V19C5 20.1046 5.89543 21 7 21H17C18.1046 21 19 20.1046 19 19V14" fill="none" stroke="currentColor" stroke-width="2" stroke-linecap="round" stroke-linejoin="round"/>
    <path d="M8 16V18" fill="none" stroke="currentColor" stroke-width="2" stroke-linecap="round" stroke-linejoin="round"/>
    <path d="M16 16V18" fill="none" stroke="currentColor" stroke-width="2" stroke-linecap="round" stroke-linejoin="round"/>
  </symbol>

  <!-- icon-gear: Settings gear -->
  <symbol id="icon-gear" viewBox="0 0 24 24">
    <path d="M12 15C13.6569 15 15 13.6569 15 12C15 10.3431 13.6569 9 12 9C10.3431 9 9 10.3431 9 12C9 13.6569 10.3431 15 12 15Z" fill="none" stroke="currentColor" stroke-width="2" stroke-linecap="round" stroke-linejoin="round"/>
    <path d="M12 2V5M12 19V22M22 12H19M5 12H2" fill="none" stroke="currentColor" stroke-width="2" stroke-linecap="round" stroke-linejoin="round"/>
    <path d="M19.0711 4.92893L17.0355 6.96447M6.96447 17.0355L4.92893 19.0711M19.0711 19.0711L17.0355 17.0355M6.96447 6.96447L4.92893 4.92893" fill="none" stroke="currentColor" stroke-width="2" stroke-linecap="round" stroke-linejoin="round"/>
  </symbol>

  <!-- icon-check: Checkmark (rounded) -->
  <symbol id="icon-check" viewBox="0 0 24 24">
    <path d="M22 12C22 17.5228 17.5228 22 12 22C6.47715 22 2 17.5228 2 12C2 6.47715 6.47715 2 12 2C17.5228 2 22 6.47715 22 12Z" fill="none" stroke="currentColor" stroke-width="2" stroke-linecap="round" stroke-linejoin="round"/>
    <path d="M8 12.5L11 15.5L16 8" fill="none" stroke="currentColor" stroke-width="2" stroke-linecap="round" stroke-linejoin="round"/>
  </symbol>

  <!-- icon-lock: Lock (closed) -->
  <symbol id="icon-lock" viewBox="0 0 24 24">
    <path d="M6 10V8C6 5.79086 7.79086 4 10 4H14C16.2091 4 18 5.79086 18 8V10M6 10H18V20C18 21.1046 17.1046 22 16 22H8C6.89543 22 6 21.1046 6 20V10Z" fill="none" stroke="currentColor" stroke-width="2" stroke-linecap="round" stroke-linejoin="round"/>
    <circle cx="12" cy="15" r="1.5" fill="currentColor"/>
  </symbol>

  <!-- icon-unlock: Lock (open) -->
  <symbol id="icon-unlock" viewBox="0 0 24 24">
    <path d="M6 10V8C6 5.79086 7.79086 4 10 4H14C16.2091 4 18 5.79086 18 8V10" fill="none" stroke="currentColor" stroke-width="2" stroke-linecap="round" stroke-linejoin="round"/>
    <path d="M6 10H18V20C18 21.1046 17.1046 22 16 22H8C6.89543 22 6 21.1046 6 20V10Z" fill="none" stroke="currentColor" stroke-width="2" stroke-linecap="round" stroke-linejoin="round"/>
    <circle cx="12" cy="15" r="1.5" fill="currentColor"/>
  </symbol>

  <!-- icon-play: Play triangle -->
  <symbol id="icon-play" viewBox="0 0 24 24">
    <path d="M22 12C22 17.5228 17.5228 22 12 22C6.47715 22 2 17.5228 2 12C2 6.47715 6.47715 2 12 2C17.5228 2 22 6.47715 22 12Z" fill="none" stroke="currentColor" stroke-width="2" stroke-linecap="round" stroke-linejoin="round"/>
    <path d="M10 8L16 12L10 16V8Z" fill="currentColor"/>
  </symbol>

  <!-- icon-star: Star (filled) -->
  <symbol id="icon-star" viewBox="0 0 24 24">
    <path d="M12 2L15.09 8.26H21.77L16.73 12.24L18.85 18.5L12 14.6L5.16 18.5L7.27 12.24L2.23 8.26H8.91L12 2Z" fill="currentColor"/>
  </symbol>

  <!-- icon-star-outline: Star (outline) -->
  <symbol id="icon-star-outline" viewBox="0 0 24 24">
    <path d="M12 2L15.09 8.26H21.77L16.73 12.24L18.85 18.5L12 14.6L5.16 18.5L7.27 12.24L2.23 8.26H8.91L12 2Z" fill="none" stroke="currentColor" stroke-width="2" stroke-linecap="round" stroke-linejoin="round"/>
  </symbol>

  <!-- icon-trophy: Trophy cup -->
  <symbol id="icon-trophy" viewBox="0 0 24 24">
    <path d="M6 9C6 5.13401 8.68629 2 12 2C15.3137 2 18 5.13401 18 9M6 9H4C3.44772 9 3 9.44772 3 10V12C3 13.1046 3.89543 14 5 14H7V19C7 20.1046 7.89543 21 9 21H15C16.1046 21 17 20.1046 17 19V14H19C20.1046 14 21 13.1046 21 12V10C21 9.44772 20.5523 9 20 9H18" fill="none" stroke="currentColor" stroke-width="2" stroke-linecap="round" stroke-linejoin="round"/>
  </symbol>

  <!-- icon-certificate: Certificate/diploma -->
  <symbol id="icon-certificate" viewBox="0 0 24 24">
    <path d="M12 2L14.39 8.26H21.04L15.54 12.88L17.94 19.13L12 14.5L6.06 19.13L8.46 12.88L2.96 8.26H9.61L12 2Z" fill="none" stroke="currentColor" stroke-width="2" stroke-linecap="round" stroke-linejoin="round"/>
    <path d="M3 11V20C3 21.1046 3.89543 22 5 22H19C20.1046 22 21 21.1046 21 20V11" fill="none" stroke="currentColor" stroke-width="2" stroke-linecap="round" stroke-linejoin="round"/>
    <path d="M7 19V22M17 19V22" fill="none" stroke="currentColor" stroke-width="2" stroke-linecap="round" stroke-linejoin="round"/>
  </symbol>

  <!-- icon-arrow-right: Arrow pointing right -->
  <symbol id="icon-arrow-right" viewBox="0 0 24 24">
    <path d="M5 12H19M19 12L13 6M19 12L13 18" fill="none" stroke="currentColor" stroke-width="2" stroke-linecap="round" stroke-linejoin="round"/>
  </symbol>

  <!-- icon-arrow-left: Arrow pointing left -->
  <symbol id="icon-arrow-left" viewBox="0 0 24 24">
    <path d="M19 12H5M5 12L11 6M5 12L11 18" fill="none" stroke="currentColor" stroke-width="2" stroke-linecap="round" stroke-linejoin="round"/>
  </symbol>

  <!-- icon-chevron-down: Chevron down -->
  <symbol id="icon-chevron-down" viewBox="0 0 24 24">
    <path d="M6 9L12 15L18 9" fill="none" stroke="currentColor" stroke-width="2" stroke-linecap="round" stroke-linejoin="round"/>
  </symbol>

  <!-- icon-code: Code brackets </> -->
  <symbol id="icon-code" viewBox="0 0 24 24">
    <path d="M7 8L3 12L7 16M17 8L21 12L17 16M14 4L10 20" fill="none" stroke="currentColor" stroke-width="2" stroke-linecap="round" stroke-linejoin="round"/>
  </symbol>

  <!-- icon-terminal: Terminal/console -->
  <symbol id="icon-terminal" viewBox="0 0 24 24">
    <path d="M4 6H20C21.1046 6 22 6.89543 22 8V18C22 19.1046 21.1046 20 20 20H4C2.89543 20 2 19.1046 2 18V8C2 6.89543 2.89543 6 4 6Z" fill="none" stroke="currentColor" stroke-width="2" stroke-linecap="round" stroke-linejoin="round"/>
    <path d="M6 11L10 15L6 19" fill="none" stroke="currentColor" stroke-width="2" stroke-linecap="round" stroke-linejoin="round"/>
    <path d="M14 15H18" fill="none" stroke="currentColor" stroke-width="2" stroke-linecap="round" stroke-linejoin="round"/>
  </symbol>

  <!-- icon-chart: Bar chart / progress -->
  <symbol id="icon-chart" viewBox="0 0 24 24">
    <path d="M3 20H21" fill="none" stroke="currentColor" stroke-width="2" stroke-linecap="round" stroke-linejoin="round"/>
    <path d="M5 20V12M12 20V6M19 20V14" fill="none" stroke="currentColor" stroke-width="2" stroke-linecap="round" stroke-linejoin="round"/>
    <rect x="4" y="11" width="2" height="9" fill="currentColor"/>
    <rect x="11" y="5" width="2" height="15" fill="currentColor"/>
    <rect x="18" y="13" width="2" height="7" fill="currentColor"/>
  </symbol>

  <!-- icon-lightning: Lightning bolt -->
  <symbol id="icon-lightning" viewBox="0 0 24 24">
    <path d="M13 2L3 14H12L11 22L21 10H12L13 2Z" fill="currentColor" stroke="currentColor" stroke-width="2" stroke-linejoin="round"/>
  </symbol>

  <!-- icon-clock: Clock -->
  <symbol id="icon-clock" viewBox="0 0 24 24">
    <circle cx="12" cy="12" r="10" fill="none" stroke="currentColor" stroke-width="2" stroke-linecap="round" stroke-linejoin="round"/>
    <path d="M12 6V12L16 16" fill="none" stroke="currentColor" stroke-width="2" stroke-linecap="round" stroke-linejoin="round"/>
  </symbol>

  <!-- icon-user: User/person -->
  <symbol id="icon-user" viewBox="0 0 24 24">
    <circle cx="12" cy="8" r="4" fill="none" stroke="currentColor" stroke-width="2" stroke-linecap="round" stroke-linejoin="round"/>
    <path d="M4 20C4 16.6863 7.58172 14 12 14C16.4183 14 20 16.6863 20 20" fill="none" stroke="currentColor" stroke-width="2" stroke-linecap="round" stroke-linejoin="round"/>
  </symbol>

  <!-- icon-logout: Logout arrow -->
  <symbol id="icon-logout" viewBox="0 0 24 24">
    <path d="M15 3H19C20.1046 3 21 3.89543 21 5V19C21 20.1046 20.1046 21 19 21H15M7 17L13 12M13 12L7 7M13 12H3" fill="none" stroke="currentColor" stroke-width="2" stroke-linecap="round" stroke-linejoin="round"/>
  </symbol>

  <!-- icon-menu: Hamburger menu -->
  <symbol id="icon-menu" viewBox="0 0 24 24">
    <path d="M3 6H21M3 12H21M3 18H21" fill="none" stroke="currentColor" stroke-width="2" stroke-linecap="round" stroke-linejoin="round"/>
  </symbol>

  <!-- icon-close: X close -->
  <symbol id="icon-close" viewBox="0 0 24 24">
    <path d="M18 6L6 18M6 6L18 18" fill="none" stroke="currentColor" stroke-width="2" stroke-linecap="round" stroke-linejoin="round"/>
  </symbol>

  <!-- icon-help: Question mark circle -->
  <symbol id="icon-help" viewBox="0 0 24 24">
    <circle cx="12" cy="12" r="10" fill="none" stroke="currentColor" stroke-width="2" stroke-linecap="round" stroke-linejoin="round"/>
    <path d="M9.09 9C9.3477 8.46957 9.80507 8.06386 10.3518 7.88693C10.8985 7.71 11.4894 7.77659 11.9895 8.06477C12.4896 8.35294 12.8589 8.84071 12.9775 9.40129C13.0961 9.96188 12.9581 10.5407 12.6 11C12.1 11.6 11 12.1 11 13.5" fill="none" stroke="currentColor" stroke-width="2" stroke-linecap="round" stroke-linejoin="round"/>
    <circle cx="12" cy="17" r="1" fill="currentColor"/>
  </symbol>

  <!-- icon-search: Magnifying glass -->
  <symbol id="icon-search" viewBox="0 0 24 24">
    <circle cx="11" cy="11" r="8" fill="none" stroke="currentColor" stroke-width="2" stroke-linecap="round" stroke-linejoin="round"/>
    <path d="M20 20L16.5 16.5" fill="none" stroke="currentColor" stroke-width="2" stroke-linecap="round" stroke-linejoin="round"/>
  </symbol>

  <!-- icon-flag: Flag/milestone -->
  <symbol id="icon-flag" viewBox="0 0 24 24">
    <path d="M4 15V3C4 2.44772 4.44772 2 5 2H18C19.1046 2 20 2.89543 20 4V7C20 8.10457 19.1046 9 18 9H5" fill="none" stroke="currentColor" stroke-width="2" stroke-linecap="round" stroke-linejoin="round"/>
    <path d="M4 9V22" fill="none" stroke="currentColor" stroke-width="2" stroke-linecap="round" stroke-linejoin="round"/>
  </symbol>

  <!-- icon-sparkle: Sparkle/magic -->
  <symbol id="icon-sparkle" viewBox="0 0 24 24">
    <path d="M12 2L15 9H22L16 14L19 21L12 16L5 21L8 14L2 9H9L12 2Z" fill="currentColor"/>
    <path d="M7 8L8 10M17 8L16 10" fill="currentColor"/>
  </symbol>

  <!-- icon-brain: Brain (for learning) -->
  <symbol id="icon-brain" viewBox="0 0 24 24">
    <path d="M9 3C8.44772 3 8 3.44772 8 4V6C6.89543 6 6 6.89543 6 8V12C6 14.2091 7.79086 16 10 16H14C16.2091 16 18 14.2091 18 12V8C18 6.89543 17.1046 6 16 6V4C16 3.44772 15.5523 3 15 3C14.4477 3 14 3.44772 14 4V6H10V4C10 3.44772 9.55228 3 9 3Z" fill="none" stroke="currentColor" stroke-width="2" stroke-linecap="round" stroke-linejoin="round"/>
    <path d="M8 12C7.44772 12 7 12.4477 7 13V15C7 16.6569 8.34315 18 10 18H14C15.6569 18 17 16.6569 17 15V13C17 12.4477 16.5523 12 16 12" fill="none" stroke="currentColor" stroke-width="2" stroke-linecap="round" stroke-linejoin="round"/>
    <path d="M10 10H14M10 14H14" fill="none" stroke="currentColor" stroke-width="2" stroke-linecap="round" stroke-linejoin="round"/>
  </symbol>

</svg>